<svg width="31" height="31" viewBox="0 0 31 31" fill="none" xmlns="http://www.w3.org/2000/svg">
<path fill-rule="evenodd" clip-rule="evenodd" d="M8.72328 8.8036C7.70943 7.78975 6.05955 7.78975 5.04567 8.8036L4.68938 9.15991C3.74383 10.1055 3.68055 11.6035 4.49816 12.6236L3.60559 15.3864L14.6655 26.4463L17.4283 25.5537C17.9015 25.9332 18.4772 26.123 19.0532 26.123C19.719 26.123 20.385 25.8694 20.892 25.3627L21.2485 25.0062C22.2623 23.9923 22.2623 22.3425 21.2482 21.3286L8.72328 8.8036Z" fill="#09ACCE"/>
<path fill-rule="evenodd" clip-rule="evenodd" d="M0.14808 26.0878C-0.20317 27.1759 0.0809 28.3542 0.88933 29.1626C1.84427 29.9976 2.86914 30.2445 3.96416 29.9038L8.56759 28.4165L1.63542 21.4844L0.14808 26.0878Z" fill="#09ACCE"/>
<path fill-rule="evenodd" clip-rule="evenodd" d="M2.23425 19.6311L10.4209 27.8177L12.8124 27.0448L3.00691 17.2393L2.23425 19.6311Z" fill="#09ACCE"/>
<path fill-rule="evenodd" clip-rule="evenodd" d="M16.947 13.5036C17.1689 13.5036 17.3909 13.4189 17.5601 13.2497C18.05 12.7598 18.3547 12.625 18.7406 12.4546C19.2031 12.2501 19.7272 12.0188 20.4462 11.2995C21.1652 10.5805 21.397 10.0564 21.6013 9.59391C22.0028 8.67841 22.6615 8.01992 23.5768 7.61822C24.0392 7.41393 24.5634 7.18237 25.2824 6.46357C25.621 6.12493 25.621 5.57604 25.2824 5.23763C24.9439 4.89898 24.395 4.89898 24.0564 5.23763C23.5664 5.7276 23.262 5.86218 22.8761 6.03254C22.4137 6.23682 21.8896 6.4684 21.1705 7.1874C20.4515 7.90642 20.2199 8.43078 20.0156 8.89323C19.8451 9.27888 19.7105 9.58359 19.2202 10.0738C18.7303 10.5638 18.4256 10.6983 18.0397 10.8689C17.5773 11.0732 17.0532 11.3048 16.3341 12.0238C15.9955 12.3624 15.9955 12.9113 16.3341 13.2497C16.5033 13.4189 16.7253 13.5035 16.947 13.5035L16.947 13.5036Z" fill="#09ACCE"/>
<path fill-rule="evenodd" clip-rule="evenodd" d="M11.7711 7.81675C11.7711 8.29525 12.1592 8.68342 12.638 8.68342C13.1167 8.68342 13.5048 8.29525 13.5048 7.81675C13.5048 7.46756 13.5771 7.341 13.7215 7.08833C13.9093 6.75955 14.1665 6.30925 14.1665 5.4999C14.1665 4.69055 13.9093 4.24025 13.7215 3.91147C13.4324 3.42609 13.4324 2.94048 13.7215 2.4551C13.9093 2.12632 14.1665 1.67625 14.1665 0.8669C14.1665 0.38817 13.7784 0 13.2999 0C12.8212 0 12.433 0.38817 12.433 0.8669C12.433 1.21563 12.3605 1.34242 12.2163 1.59485C12.0283 1.92363 11.7711 2.37393 11.7711 3.18328C11.7711 3.99263 12.0283 4.44293 12.2163 4.77171C12.5052 5.25709 12.5052 5.7427 12.2163 6.22808C12.0283 6.55709 11.7711 7.00739 11.7711 7.81674L11.7711 7.81675Z" fill="#09ACCE"/>
<path fill-rule="evenodd" clip-rule="evenodd" d="M29.1848 16.5472C28.8361 16.5472 28.7094 16.4747 28.4569 16.3303C28.1281 16.1425 27.6778 15.8853 26.8685 15.8853C26.0591 15.8853 25.6088 16.1425 25.2802 16.3303C24.7946 16.6194 24.309 16.6194 23.8234 16.3303C23.4949 16.1425 23.0446 15.8853 22.2352 15.8853C21.7565 15.8853 21.3683 16.2734 21.3683 16.7521C21.3683 17.2309 21.7565 17.6188 22.2352 17.6188C22.5842 17.6188 22.7109 17.6913 22.9634 17.8357C23.2922 18.0235 23.7425 18.2807 24.5519 18.2807C25.3611 18.2807 25.8115 18.0235 26.1403 17.8357C26.6257 17.5466 27.1113 17.5466 27.5966 17.8357C27.9254 18.0235 28.3755 18.2807 29.1848 18.2807C29.6636 18.2807 30.0518 17.8926 30.0518 17.4139C30.0518 16.9351 29.6638 16.5472 29.1848 16.5472H29.1848Z" fill="#09ACCE"/>
<path fill-rule="evenodd" clip-rule="evenodd" d="M17.649 3.90907H19.521C19.9998 3.90907 20.3879 3.52091 20.3879 3.04218C20.3879 2.56345 19.9998 2.17529 19.521 2.17529H17.649C17.1703 2.17529 16.7821 2.56346 16.7821 3.04218C16.7821 3.52091 17.1703 3.90907 17.649 3.90907Z" fill="#09ACCE"/>
<path fill-rule="evenodd" clip-rule="evenodd" d="M17.1811 8.12134C17.6598 8.12134 18.048 7.73317 18.048 7.25444V6.31831C18.048 5.83958 17.6598 5.45142 17.1811 5.45142C16.7024 5.45142 16.3142 5.83958 16.3142 6.31831V7.25444C16.3142 7.73317 16.7024 8.12134 17.1811 8.12134Z" fill="#09ACCE"/>
<path fill-rule="evenodd" clip-rule="evenodd" d="M27.0096 13.2694C27.4883 13.2694 27.8765 12.8812 27.8765 12.4025V10.5305C27.8765 10.0517 27.4883 9.66357 27.0096 9.66357C26.5309 9.66357 26.1426 10.0517 26.1426 10.5305V12.4025C26.1426 12.8812 26.5309 13.2694 27.0096 13.2694Z" fill="#09ACCE"/>
<path fill-rule="evenodd" clip-rule="evenodd" d="M22.7972 12.0039C22.3185 12.0039 21.9305 12.3918 21.9305 12.8706C21.9305 13.3493 22.3185 13.7375 22.7972 13.7375H23.7333C24.2121 13.7375 24.6002 13.3493 24.6002 12.8706C24.6002 12.3918 24.2121 12.0039 23.7333 12.0039H22.7972Z" fill="#09ACCE"/>
</svg>
